<svg xmlns="http://www.w3.org/2000/svg" xmlns:xlink="http://www.w3.org/1999/xlink" width="500" zoomAndPan="magnify" viewBox="0 0 375 374.999991" height="500" preserveAspectRatio="xMidYMid meet" version="1.0"><defs><clipPath id="a06593afea"><path d="M 70.914062 89 L 320 89 L 320 287 L 70.914062 287 Z M 70.914062 89 " clip-rule="nonzero"/></clipPath><clipPath id="3dd2b855e0"><path d="M 70.914062 100 L 320.664062 100 L 320.664062 296.160156 L 70.914062 296.160156 Z M 70.914062 100 " clip-rule="nonzero"/></clipPath><clipPath id="2012b55ea8"><path d="M 90 78.660156 L 305 78.660156 L 305 109 L 90 109 Z M 90 78.660156 " clip-rule="nonzero"/></clipPath></defs><rect x="-37.5" width="450" fill="#ffffff" y="-37.499999" height="449.999989" fill-opacity="1"/><rect x="-37.5" width="450" fill="#ffffff" y="-37.499999" height="449.999989" fill-opacity="1"/><rect x="-37.5" width="450" fill="#ffffff" y="-37.499999" height="449.999989" fill-opacity="1"/><g clip-path="url(#a06593afea)"><path fill="#f77292" d="M 319.605469 222.765625 L 278.976562 279.8125 L 81.09375 286.945312 L 70.953125 276.703125 L 73.910156 96.671875 C 73.910156 95.5625 74.679688 94.671875 75.652344 94.671875 L 112.019531 94.671875 L 112.054688 94.597656 L 115.371094 89.578125 L 119.636719 94.671875 L 156.285156 94.671875 L 160.328125 90.503906 L 163.9375 94.671875 L 202.585938 94.671875 L 206.902344 90.503906 L 210.234375 94.671875 L 250.972656 94.671875 L 254.332031 90.503906 L 258.613281 94.671875 L 296.726562 94.671875 L 299.210938 90.503906 L 304.347656 94.671875 L 315.929688 94.671875 C 316.894531 94.671875 317.671875 95.570312 317.671875 96.671875 Z M 319.605469 222.765625 " fill-opacity="1" fill-rule="nonzero"/></g><g clip-path="url(#3dd2b855e0)"><path fill="#394f75" d="M 320.660156 291.160156 C 320.660156 292.269531 319.886719 293.160156 318.917969 293.160156 L 72.652344 296.152344 C 71.6875 296.152344 70.910156 295.253906 70.910156 294.152344 L 70.910156 278.792969 L 70.945312 276.699219 C 241.5625 274.539062 301.03125 239.28125 319.601562 222.757812 Z M 99.082031 109.691406 C 101.660156 109.691406 103.757812 107.535156 103.757812 104.875 C 103.757812 102.21875 101.660156 100.0625 99.082031 100.0625 C 96.5 100.0625 94.40625 102.21875 94.40625 104.875 C 94.40625 107.535156 96.5 109.691406 99.082031 109.691406 Z M 143.277344 109.953125 C 145.859375 109.953125 147.953125 107.796875 147.953125 105.140625 C 147.953125 102.484375 145.859375 100.328125 143.277344 100.328125 C 140.699219 100.328125 138.601562 102.484375 138.601562 105.140625 C 138.601562 107.796875 140.699219 109.953125 143.277344 109.953125 Z M 189.578125 109.953125 C 192.15625 109.953125 194.253906 107.796875 194.253906 105.140625 C 194.253906 102.484375 192.15625 100.328125 189.578125 100.328125 C 186.996094 100.328125 184.902344 102.484375 184.902344 105.140625 C 184.902344 107.796875 186.996094 109.953125 189.578125 109.953125 Z M 237.929688 110.109375 C 240.507812 110.109375 242.605469 107.953125 242.605469 105.296875 C 242.605469 102.636719 240.507812 100.484375 237.929688 100.484375 C 235.347656 100.484375 233.253906 102.636719 233.253906 105.296875 C 233.257812 107.953125 235.347656 110.109375 237.929688 110.109375 Z M 283.652344 110.265625 C 286.230469 110.265625 288.328125 108.109375 288.328125 105.453125 C 288.328125 102.792969 286.230469 100.640625 283.652344 100.640625 C 281.070312 100.640625 278.976562 102.792969 278.976562 105.453125 C 278.976562 108.101562 281.066406 110.265625 283.652344 110.265625 Z M 283.652344 110.265625 " fill-opacity="1" fill-rule="nonzero"/></g><path fill="#fefadf" d="M 244.484375 137.21875 L 216.304688 137.316406 L 216.304688 133.257812 L 244.484375 133.160156 Z M 274.453125 133.058594 L 246.28125 133.148438 L 246.28125 137.207031 L 274.453125 137.117188 Z M 310.453125 283.953125 L 81.09375 286.945312 C 81.09375 286.945312 84.640625 238.667969 84.953125 203.453125 C 85.265625 168.238281 85.28125 120.097656 85.28125 120.097656 L 308.058594 120.097656 C 308.058594 120.097656 307.902344 154.253906 307.902344 194.453125 C 307.902344 234.648438 310.453125 283.953125 310.453125 283.953125 Z M 211.066406 186.207031 C 211.066406 181.503906 207.253906 177.691406 202.550781 177.691406 L 200.742188 177.691406 C 196.035156 177.691406 192.222656 181.503906 192.222656 186.207031 C 192.222656 190.914062 196.035156 194.726562 200.742188 194.726562 L 202.550781 194.726562 C 207.253906 194.726562 211.066406 190.914062 211.066406 186.207031 Z M 239.6875 186.207031 C 239.6875 181.503906 235.875 177.691406 231.171875 177.691406 L 229.367188 177.691406 C 224.664062 177.691406 220.851562 181.503906 220.851562 186.207031 C 220.851562 190.914062 224.664062 194.726562 229.367188 194.726562 L 231.171875 194.726562 C 235.871094 194.726562 239.6875 190.914062 239.6875 186.207031 Z M 266.890625 186.207031 C 266.890625 181.503906 263.078125 177.691406 258.371094 177.691406 L 256.5625 177.691406 C 251.859375 177.691406 248.046875 181.503906 248.046875 186.207031 C 248.046875 190.914062 251.859375 194.726562 256.5625 194.726562 L 258.371094 194.726562 C 263.070312 194.726562 266.890625 190.914062 266.890625 186.207031 Z M 294.097656 186.207031 C 294.097656 181.503906 290.285156 177.691406 285.578125 177.691406 L 283.773438 177.691406 C 279.066406 177.691406 275.253906 181.503906 275.253906 186.207031 C 275.253906 190.914062 279.066406 194.726562 283.773438 194.726562 L 285.578125 194.726562 C 290.285156 194.726562 294.097656 190.914062 294.097656 186.207031 Z M 295.59375 131.191406 L 99.34375 131.84375 L 99.285156 139.5 L 294.132812 138.847656 L 294.960938 138.847656 Z M 214.511719 133.257812 L 186.332031 133.351562 L 186.332031 137.417969 L 214.511719 137.320312 Z M 293.644531 132.992188 L 276.246094 133.054688 L 276.246094 137.113281 L 293.308594 137.050781 Z M 124.59375 133.554688 L 101.121094 133.632812 L 101.09375 137.699219 L 124.59375 137.621094 Z M 154.570312 133.453125 L 126.390625 133.550781 L 126.390625 137.613281 L 154.570312 137.519531 Z M 184.535156 133.359375 L 156.359375 133.453125 L 156.359375 137.519531 L 184.535156 137.421875 Z M 184.535156 133.359375 " fill-opacity="1" fill-rule="nonzero"/><path fill="#edd5c7" d="M 275.21875 159.964844 C 275.21875 155.261719 279.03125 151.449219 283.734375 151.449219 L 285.539062 151.449219 C 290.242188 151.449219 294.054688 155.261719 294.054688 159.964844 C 294.054688 164.671875 290.242188 168.484375 285.539062 168.484375 L 283.734375 168.484375 C 279.03125 168.484375 275.21875 164.671875 275.21875 159.964844 Z M 255.949219 220.65625 L 257.753906 220.65625 C 262.460938 220.65625 266.273438 216.84375 266.273438 212.140625 C 266.273438 207.433594 262.460938 203.621094 257.753906 203.621094 L 255.949219 203.621094 C 251.242188 203.621094 247.429688 207.433594 247.429688 212.140625 C 247.421875 216.839844 251.242188 220.65625 255.949219 220.65625 Z M 258.242188 229.003906 L 256.433594 229.003906 C 251.726562 229.003906 247.914062 232.816406 247.914062 237.519531 C 247.914062 242.226562 251.726562 246.039062 256.433594 246.039062 L 258.242188 246.039062 C 262.945312 246.039062 266.757812 242.226562 266.757812 237.519531 C 266.757812 232.820312 262.945312 229.003906 258.242188 229.003906 Z M 202.550781 203.617188 L 200.742188 203.617188 C 196.035156 203.617188 192.222656 207.429688 192.222656 212.132812 C 192.222656 216.839844 196.035156 220.652344 200.742188 220.652344 L 202.550781 220.652344 C 207.253906 220.652344 211.066406 216.839844 211.066406 212.132812 C 211.066406 207.433594 207.253906 203.617188 202.550781 203.617188 Z M 202.550781 229.003906 L 200.742188 229.003906 C 196.035156 229.003906 192.222656 232.816406 192.222656 237.519531 C 192.222656 242.226562 196.035156 246.039062 200.742188 246.039062 L 202.550781 246.039062 C 207.253906 246.039062 211.066406 242.226562 211.066406 237.519531 C 211.066406 232.820312 207.253906 229.003906 202.550781 229.003906 Z M 202.550781 253.238281 L 200.742188 253.238281 C 196.035156 253.238281 192.222656 257.054688 192.222656 261.757812 C 192.222656 266.460938 196.035156 270.277344 200.742188 270.277344 L 202.550781 270.277344 C 207.253906 270.277344 211.066406 266.460938 211.066406 261.757812 C 211.066406 257.054688 207.253906 253.238281 202.550781 253.238281 Z M 111.457031 220.65625 L 113.261719 220.65625 C 117.96875 220.65625 121.78125 216.84375 121.78125 212.140625 C 121.78125 207.433594 117.96875 203.621094 113.261719 203.621094 L 111.457031 203.621094 C 106.75 203.621094 102.9375 207.433594 102.9375 212.140625 C 102.9375 216.839844 106.75 220.65625 111.457031 220.65625 Z M 112.25 246.042969 L 114.058594 246.042969 C 118.765625 246.042969 122.578125 242.230469 122.578125 237.527344 C 122.578125 232.820312 118.765625 229.007812 114.058594 229.007812 L 112.25 229.007812 C 107.546875 229.007812 103.734375 232.820312 103.734375 237.527344 C 103.734375 242.226562 107.546875 246.042969 112.25 246.042969 Z M 115.003906 253.238281 L 113.199219 253.238281 C 108.492188 253.238281 104.679688 257.054688 104.679688 261.757812 C 104.679688 266.460938 108.492188 270.277344 113.199219 270.277344 L 115.003906 270.277344 C 119.710938 270.277344 123.523438 266.460938 123.523438 261.757812 C 123.523438 257.054688 119.710938 253.238281 115.003906 253.238281 Z M 110.820312 194.726562 L 112.628906 194.726562 C 117.332031 194.726562 121.148438 190.914062 121.148438 186.207031 C 121.148438 181.503906 117.332031 177.691406 112.628906 177.691406 L 110.820312 177.691406 C 106.117188 177.691406 102.300781 181.503906 102.300781 186.207031 C 102.300781 190.914062 106.117188 194.726562 110.820312 194.726562 Z M 255.367188 168.484375 L 257.175781 168.484375 C 261.878906 168.484375 265.691406 164.671875 265.691406 159.964844 C 265.691406 155.261719 261.878906 151.449219 257.175781 151.449219 L 255.367188 151.449219 C 250.660156 151.449219 246.847656 155.261719 246.847656 159.964844 C 246.847656 164.671875 250.667969 168.484375 255.367188 168.484375 Z M 202.550781 151.449219 L 200.742188 151.449219 C 196.035156 151.449219 192.222656 155.261719 192.222656 159.964844 C 192.222656 164.671875 196.035156 168.484375 200.742188 168.484375 L 202.550781 168.484375 C 207.253906 168.484375 211.066406 164.671875 211.066406 159.964844 C 211.066406 155.261719 207.253906 151.449219 202.550781 151.449219 Z M 229.074219 220.65625 L 230.875 220.65625 C 235.582031 220.65625 239.394531 216.84375 239.394531 212.140625 C 239.394531 207.433594 235.582031 203.621094 230.875 203.621094 L 229.074219 203.621094 C 224.371094 203.621094 220.554688 207.433594 220.554688 212.140625 C 220.554688 216.839844 224.371094 220.65625 229.074219 220.65625 Z M 231.886719 229.003906 L 230.082031 229.003906 C 225.375 229.003906 221.5625 232.816406 221.5625 237.519531 C 221.5625 242.226562 225.375 246.039062 230.082031 246.039062 L 231.886719 246.039062 C 236.59375 246.039062 240.40625 242.226562 240.40625 237.519531 C 240.40625 232.820312 236.59375 229.003906 231.886719 229.003906 Z M 171.945312 203.617188 L 170.140625 203.617188 C 165.433594 203.617188 161.621094 207.429688 161.621094 212.132812 C 161.621094 216.839844 165.433594 220.652344 170.140625 220.652344 L 171.945312 220.652344 C 176.652344 220.652344 180.464844 216.839844 180.464844 212.132812 C 180.464844 207.433594 176.652344 203.617188 171.945312 203.617188 Z M 169.390625 246.042969 L 171.199219 246.042969 C 175.902344 246.042969 179.71875 242.230469 179.71875 237.527344 C 179.71875 232.820312 175.902344 229.007812 171.199219 229.007812 L 169.390625 229.007812 C 164.6875 229.007812 160.871094 232.820312 160.871094 237.527344 C 160.867188 242.226562 164.6875 246.042969 169.390625 246.042969 Z M 171.414062 253.238281 L 169.613281 253.238281 C 164.90625 253.238281 161.09375 257.054688 161.09375 261.757812 C 161.09375 266.460938 164.90625 270.277344 169.613281 270.277344 L 171.414062 270.277344 C 176.121094 270.277344 179.933594 266.460938 179.933594 261.757812 C 179.933594 257.054688 176.121094 253.238281 171.414062 253.238281 Z M 172.289062 177.691406 L 170.480469 177.691406 C 165.773438 177.691406 161.960938 181.503906 161.960938 186.207031 C 161.960938 190.914062 165.773438 194.726562 170.480469 194.726562 L 172.289062 194.726562 C 176.992188 194.726562 180.808594 190.914062 180.808594 186.207031 C 180.808594 181.503906 176.992188 177.691406 172.289062 177.691406 Z M 228.746094 168.484375 L 230.554688 168.484375 C 235.257812 168.484375 239.070312 164.671875 239.070312 159.964844 C 239.070312 155.261719 235.257812 151.449219 230.554688 151.449219 L 228.746094 151.449219 C 224.039062 151.449219 220.226562 155.261719 220.226562 159.964844 C 220.226562 164.671875 224.039062 168.484375 228.746094 168.484375 Z M 172.691406 151.449219 L 170.882812 151.449219 C 166.175781 151.449219 162.363281 155.261719 162.363281 159.964844 C 162.363281 164.671875 166.175781 168.484375 170.882812 168.484375 L 172.691406 168.484375 C 177.394531 168.484375 181.207031 164.671875 181.207031 159.964844 C 181.207031 155.261719 177.390625 151.449219 172.691406 151.449219 Z M 285.488281 203.617188 L 283.683594 203.617188 C 278.976562 203.617188 275.164062 207.429688 275.164062 212.132812 C 275.164062 216.839844 278.976562 220.652344 283.683594 220.652344 L 285.488281 220.652344 C 290.195312 220.652344 294.007812 216.839844 294.007812 212.132812 C 294.007812 207.433594 290.195312 203.617188 285.488281 203.617188 Z M 284.441406 229.003906 L 282.632812 229.003906 C 277.929688 229.003906 274.117188 232.816406 274.117188 237.519531 C 274.117188 242.226562 277.929688 246.039062 282.632812 246.039062 L 284.441406 246.039062 C 289.148438 246.039062 292.960938 242.226562 292.960938 237.519531 C 292.960938 232.820312 289.148438 229.003906 284.441406 229.003906 Z M 141.8125 203.617188 L 140.003906 203.617188 C 135.300781 203.617188 131.484375 207.429688 131.484375 212.132812 C 131.484375 216.839844 135.300781 220.652344 140.003906 220.652344 L 141.8125 220.652344 C 146.515625 220.652344 150.332031 216.839844 150.332031 212.132812 C 150.332031 207.433594 146.515625 203.617188 141.8125 203.617188 Z M 139.777344 246.042969 L 141.578125 246.042969 C 146.285156 246.042969 150.097656 242.230469 150.097656 237.527344 C 150.097656 232.820312 146.285156 229.007812 141.578125 229.007812 L 139.777344 229.007812 C 135.070312 229.007812 131.257812 232.820312 131.257812 237.527344 C 131.257812 242.226562 135.070312 246.042969 139.777344 246.042969 Z M 143.171875 253.238281 L 141.363281 253.238281 C 136.65625 253.238281 132.84375 257.054688 132.84375 261.757812 C 132.84375 266.460938 136.65625 270.277344 141.363281 270.277344 L 143.171875 270.277344 C 147.875 270.277344 151.691406 266.460938 151.691406 261.757812 C 151.691406 257.054688 147.871094 253.238281 143.171875 253.238281 Z M 139.992188 194.726562 L 141.800781 194.726562 C 146.503906 194.726562 150.320312 190.914062 150.320312 186.207031 C 150.320312 181.503906 146.503906 177.691406 141.800781 177.691406 L 139.992188 177.691406 C 135.285156 177.691406 131.472656 181.503906 131.472656 186.207031 C 131.472656 190.914062 135.285156 194.726562 139.992188 194.726562 Z M 139.992188 194.726562 " fill-opacity="1" fill-rule="nonzero"/><g clip-path="url(#2012b55ea8)"><path fill="#7457ad" d="M 119.816406 93.5625 C 119.816406 93.96875 119.734375 94.347656 119.703125 94.742188 L 112.054688 94.59375 C 112.160156 93.976562 112.351562 93.394531 112.351562 92.742188 C 112.351562 87.773438 109.101562 83.746094 105.117188 83.746094 C 101.128906 83.746094 97.894531 87.78125 97.894531 92.742188 C 97.894531 96.113281 99.746094 99.308594 101.949219 100.847656 C 101.949219 100.847656 104.074219 102.394531 103.289062 105.402344 C 102.492188 108.472656 99.925781 107.671875 99.925781 107.671875 C 94.117188 105.722656 90.765625 100.160156 90.765625 93.5625 C 90.765625 85.351562 97.253906 78.675781 105.285156 78.675781 C 113.304688 78.675781 119.816406 85.351562 119.816406 93.5625 Z M 149.480469 78.941406 C 141.457031 78.941406 134.964844 85.613281 134.964844 93.828125 C 134.964844 100.421875 138.316406 105.984375 144.121094 107.929688 C 144.121094 107.929688 146.683594 108.730469 147.488281 105.660156 C 148.269531 102.648438 146.144531 101.105469 146.144531 101.105469 C 143.941406 99.566406 142.09375 96.363281 142.09375 93 C 142.09375 88.039062 145.324219 84.003906 149.3125 84.003906 C 153.300781 84.003906 156.550781 88.039062 156.550781 93 C 156.550781 93.585938 156.402344 94.121094 156.285156 94.664062 L 163.9375 94.664062 C 163.972656 94.382812 164.007812 94.109375 164.007812 93.820312 C 164.015625 85.613281 157.503906 78.941406 149.480469 78.941406 Z M 244.128906 79.09375 C 236.109375 79.09375 229.613281 85.769531 229.613281 93.980469 C 229.613281 100.578125 232.964844 106.140625 238.773438 108.089844 C 238.773438 108.089844 241.335938 108.894531 242.136719 105.824219 C 242.921875 102.8125 240.796875 101.265625 240.796875 101.265625 C 238.59375 99.730469 236.742188 96.53125 236.742188 93.164062 C 236.742188 88.199219 239.976562 84.164062 243.964844 84.164062 C 247.949219 84.164062 251.199219 88.199219 251.199219 93.164062 C 251.199219 93.695312 251.074219 94.179688 250.96875 94.671875 L 258.605469 94.671875 C 258.636719 94.441406 258.660156 94.214844 258.660156 93.980469 C 258.664062 85.769531 252.152344 79.09375 244.128906 79.09375 Z M 289.847656 79.246094 C 281.828125 79.246094 275.332031 85.917969 275.332031 94.132812 C 275.332031 100.730469 278.683594 106.289062 284.492188 108.242188 C 284.492188 108.242188 287.050781 109.042969 287.855469 105.972656 C 288.640625 102.960938 286.515625 101.417969 286.515625 101.417969 C 284.3125 99.878906 282.460938 96.683594 282.460938 93.3125 C 282.460938 88.347656 285.695312 84.316406 289.679688 84.316406 C 293.667969 84.316406 296.917969 88.347656 296.917969 93.3125 C 296.917969 93.789062 296.816406 94.226562 296.71875 94.664062 L 304.339844 94.664062 C 304.359375 94.492188 304.382812 94.3125 304.382812 94.132812 C 304.390625 85.925781 297.875 79.246094 289.847656 79.246094 Z M 195.777344 78.941406 C 187.757812 78.941406 181.261719 85.613281 181.261719 93.828125 C 181.261719 100.421875 184.613281 105.984375 190.421875 107.929688 C 190.421875 107.929688 192.988281 108.730469 193.785156 105.660156 C 194.570312 102.648438 192.445312 101.105469 192.445312 101.105469 C 190.242188 99.566406 188.390625 96.363281 188.390625 93 C 188.390625 88.039062 191.625 84.003906 195.609375 84.003906 C 199.597656 84.003906 202.847656 88.039062 202.847656 93 C 202.847656 93.585938 202.699219 94.121094 202.585938 94.664062 L 210.234375 94.664062 C 210.273438 94.382812 210.308594 94.109375 210.308594 93.820312 C 210.3125 85.613281 203.800781 78.941406 195.777344 78.941406 Z M 195.777344 78.941406 " fill-opacity="1" fill-rule="nonzero"/></g></svg>