<?xml version="1.0" standalone="no"?>
<!DOCTYPE svg PUBLIC "-//W3C//DTD SVG 20010904//EN"
 "http://www.w3.org/TR/2001/REC-SVG-20010904/DTD/svg10.dtd">
<svg version="1.0" xmlns="http://www.w3.org/2000/svg"
 width="920.000000pt" height="512.000000pt" viewBox="0 0 920.000000 512.000000"
 preserveAspectRatio="xMidYMid meet">

<g transform="translate(0.000000,512.000000) scale(0.100000,-0.100000)"
fill="#000000" stroke="none">
<path d="M3975 4720 c-943 -70 -1334 -103 -1371 -114 -67 -21 -126 -73 -155
-138 l-24 -53 -3 -1435 c-2 -1044 0 -1451 8 -1495 21 -110 71 -193 270 -446
41 -54 131 -170 200 -259 69 -89 162 -210 208 -268 135 -175 197 -212 358
-212 45 0 752 40 1570 90 1146 69 1502 93 1544 106 84 25 130 61 165 129 l30
59 3 1615 c2 1126 0 1627 -8 1653 -6 22 -27 52 -54 75 -58 51 -982 697 -1049
734 -74 40 -165 59 -277 58 -52 -1 -689 -45 -1415 -99z m1493 -160 c34 -6 87
-21 117 -34 51 -23 487 -329 548 -384 43 -41 35 -49 -50 -56 -277 -23 -2468
-149 -2598 -150 -143 -1 -165 1 -205 20 -66 31 -470 351 -470 373 0 30 35 52
91 58 61 6 2427 180 2474 182 17 0 58 -4 93 -9z m961 -796 c17 -14 35 -42 41
-62 14 -53 14 -2733 -1 -2786 -14 -50 -55 -91 -103 -104 -20 -6 -677 -48
-1459 -93 -1548 -89 -1480 -87 -1538 -30 -15 15 -32 45 -38 67 -8 27 -11 447
-11 1394 0 1321 1 1356 20 1398 14 31 29 47 56 58 28 12 352 34 1448 98 776
46 1443 84 1483 85 63 1 75 -2 102 -25z"/>
<path d="M5730 3289 c-162 -10 -310 -21 -328 -24 -64 -12 -138 -109 -119 -157
3 -9 41 -18 118 -26 62 -7 115 -14 116 -16 2 -1 2 -275 1 -607 l-3 -604 -449
683 c-247 375 -451 684 -455 686 -3 1 -158 -8 -344 -20 -372 -26 -390 -29
-433 -93 -17 -25 -24 -49 -24 -82 l0 -47 88 -7 c48 -3 97 -8 110 -11 l22 -4 0
-865 c0 -814 -1 -864 -17 -869 -181 -52 -201 -64 -210 -135 l-6 -41 49 0 c27
1 186 9 354 19 269 16 310 21 347 39 44 23 78 62 88 105 6 22 3 27 -17 32 -12
3 -75 17 -138 31 -63 14 -116 27 -117 28 -2 2 -2 297 -1 656 l3 653 434 -679
c239 -373 459 -707 489 -742 76 -87 115 -106 222 -106 88 0 116 6 237 56 l73
30 2 970 3 971 84 17 c107 21 131 44 131 126 0 30 -3 53 -7 53 -5 -1 -141 -10
-303 -20z"/>
</g>
</svg>
